<svg xmlns="http://www.w3.org/2000/svg" version="1.1" xmlns:xlink="http://www.w3.org/1999/xlink" xmlns:svgjs="http://svgjs.dev/svgjs" width="2000" height="4685" viewBox="0 0 2000 4685"><g transform="matrix(1,0,0,1,-2.5742570809492236,-5.71341463414592)"><svg viewBox="0 0 140 328" data-background-color="#191552" preserveAspectRatio="xMidYMid meet" height="4685" width="2000" xmlns="http://www.w3.org/2000/svg" xmlns:xlink="http://www.w3.org/1999/xlink"><g id="tight-bounds" transform="matrix(1,0,0,1,0.1801979956664468,0.39999999999997726)"><svg viewBox="0 0 139.6396040086671 327.2" height="327.2" width="139.6396040086671"><g><svg viewBox="0 0 276.50704225352115 647.9043310645357" height="327.2" width="139.6396040086671"><g transform="matrix(1,0,0,1,0,320.7043310645356)"><svg viewBox="0 0 276.50704225352115 327.2" height="327.2" width="276.50704225352115"><g id="textblocktransform"><svg viewBox="0 0 276.50704225352115 327.2" height="327.2" width="276.50704225352115" id="textblock"><g><svg viewBox="0 0 276.50704225352115 327.2" height="327.2" width="276.50704225352115"><g transform="matrix(1,0,0,1,0,0)"><svg width="276.50704225352115" viewBox="4.25 -35.5 30 35.5" height="327.2" data-palette-color="url(#4f96fece-0f5f-4fb0-9ea1-6f122790b97c)"></svg></g></svg></g></svg></g></svg></g><g transform="matrix(1,0,0,1,52.81284507042254,0)"><svg viewBox="0 0 170.88135211267607 294.5283310645356" height="294.5283310645356" width="170.88135211267607"><g><svg xmlns="http://www.w3.org/2000/svg" xmlns:xlink="http://www.w3.org/1999/xlink" version="1.1" x="0" y="0" viewBox="21.679106830508616 1 56.85827385947762 98" enable-background="new 0 0 100 100" xml:space="preserve" height="294.5283310645356" width="170.88135211267607" class="icon-icon-0" data-fill-palette-color="accent" id="icon-0"></svg></g></svg></g><g></g></svg></g><defs></defs><mask id="e6e95fc3-3eaa-42d0-b788-18828d133990"><g id="SvgjsG4782"><svg viewBox="0 0 139.6396040086671 327.2" height="327.2" width="139.6396040086671"><g><svg viewBox="0 0 276.50704225352115 647.9043310645357" height="327.2" width="139.6396040086671"><g transform="matrix(1,0,0,1,0,320.7043310645356)"><svg viewBox="0 0 276.50704225352115 327.2" height="327.2" width="276.50704225352115"><g id="SvgjsG4781"><svg viewBox="0 0 276.50704225352115 327.2" height="327.2" width="276.50704225352115" id="SvgjsSvg4780"><g><svg viewBox="0 0 276.50704225352115 327.2" height="327.2" width="276.50704225352115"><g transform="matrix(1,0,0,1,0,0)"><svg width="276.50704225352115" viewBox="4.25 -35.5 30 35.5" height="327.2" data-palette-color="url(#4f96fece-0f5f-4fb0-9ea1-6f122790b97c)"><path d="M30.15 0L8.75-27.2 8.75 0 4.25 0 4.25-35.5 8.05-35.5 29.75-7.75 29.75-35.45 34.25-35.45 34.25 0 30.15 0Z" opacity="1" transform="matrix(1,0,0,1,0,0)" fill="white" class="wordmark-text-0" id="SvgjsPath4779"></path></svg></g></svg></g></svg></g></svg></g><g transform="matrix(1,0,0,1,52.81284507042254,0)"><svg viewBox="0 0 170.88135211267607 294.5283310645356" height="294.5283310645356" width="170.88135211267607"><g><svg xmlns="http://www.w3.org/2000/svg" xmlns:xlink="http://www.w3.org/1999/xlink" version="1.1" x="0" y="0" viewBox="21.679106830508616 1 56.85827385947762 98" enable-background="new 0 0 100 100" xml:space="preserve" height="294.5283310645356" width="170.88135211267607" class="icon-icon-0" data-fill-palette-color="accent" id="SvgjsSvg4778"><g fill="black"><path fill-rule="evenodd" clip-rule="evenodd" d="M30.545 28.822C29.38 36.039 30.875 43.672 37.045 47.863 30.758 19.81 45.756 8.664 59.646 1 43.466 24.046 76.542 24.644 78.423 51.13 80.028 73.71 64.507 91.317 46.639 99 46.845 76.175 24.089 73.067 21.801 54.397 20.905 47.094 25.062 33.766 30.545 28.822" fill="black"></path></g></svg></g></svg></g><g></g></svg></g><defs><mask></mask></defs></svg><rect width="139.6396040086671" height="327.2" fill="black" stroke="none" visibility="hidden"></rect></g></mask><linearGradient x1="0" x2="1" y1="0.578" y2="0.595" id="4f96fece-0f5f-4fb0-9ea1-6f122790b97c"><stop stop-color="#6ee2f5" offset="0"></stop><stop stop-color="#6454f0" offset="1"></stop></linearGradient><rect width="139.6396040086671" height="327.2" fill="url(#4f96fece-0f5f-4fb0-9ea1-6f122790b97c)" mask="url(#e6e95fc3-3eaa-42d0-b788-18828d133990)" data-fill-palette-color="primary"></rect><mask id="c7cbd502-b7bc-46ae-aaf8-6a1d2d319bee"><g id="SvgjsG4791"><svg viewBox="0 0 139.6396040086671 327.2" height="327.2" width="139.6396040086671"><g><svg viewBox="0 0 276.50704225352115 647.9043310645357" height="327.2" width="139.6396040086671"><g transform="matrix(1,0,0,1,0,320.7043310645356)"><svg viewBox="0 0 276.50704225352115 327.2" height="327.2" width="276.50704225352115"><g id="SvgjsG4790"><svg viewBox="0 0 276.50704225352115 327.2" height="327.2" width="276.50704225352115" id="SvgjsSvg4789"><g><svg viewBox="0 0 276.50704225352115 327.2" height="327.2" width="276.50704225352115"><g transform="matrix(1,0,0,1,0,0)"><svg width="276.50704225352115" viewBox="4.25 -35.5 30 35.5" height="327.2" data-palette-color="url(#4f96fece-0f5f-4fb0-9ea1-6f122790b97c)"></svg></g></svg></g></svg></g></svg></g><g transform="matrix(1,0,0,1,52.81284507042254,0)"><svg viewBox="0 0 170.88135211267607 294.5283310645356" height="294.5283310645356" width="170.88135211267607"><g><svg xmlns="http://www.w3.org/2000/svg" xmlns:xlink="http://www.w3.org/1999/xlink" version="1.1" x="0" y="0" viewBox="21.679106830508616 1 56.85827385947762 98" enable-background="new 0 0 100 100" xml:space="preserve" height="294.5283310645356" width="170.88135211267607" class="icon-icon-0" data-fill-palette-color="accent" id="SvgjsSvg4788"><g fill="white"><path fill-rule="evenodd" clip-rule="evenodd" d="M30.545 28.822C29.38 36.039 30.875 43.672 37.045 47.863 30.758 19.81 45.756 8.664 59.646 1 43.466 24.046 76.542 24.644 78.423 51.13 80.028 73.71 64.507 91.317 46.639 99 46.845 76.175 24.089 73.067 21.801 54.397 20.905 47.094 25.062 33.766 30.545 28.822" fill="white"></path></g></svg></g></svg></g><g></g></svg></g><defs><mask></mask></defs><mask><g id="SvgjsG4787"><svg viewBox="0 0 139.6396040086671 327.2" height="327.2" width="139.6396040086671"><g><svg viewBox="0 0 276.50704225352115 647.9043310645357" height="327.2" width="139.6396040086671"><g transform="matrix(1,0,0,1,0,320.7043310645356)"><svg viewBox="0 0 276.50704225352115 327.2" height="327.2" width="276.50704225352115"><g id="SvgjsG4786"><svg viewBox="0 0 276.50704225352115 327.2" height="327.2" width="276.50704225352115" id="SvgjsSvg4785"><g><svg viewBox="0 0 276.50704225352115 327.2" height="327.2" width="276.50704225352115"><g transform="matrix(1,0,0,1,0,0)"><svg width="276.50704225352115" viewBox="4.25 -35.5 30 35.5" height="327.2" data-palette-color="url(#4f96fece-0f5f-4fb0-9ea1-6f122790b97c)"><path d="M30.15 0L8.75-27.2 8.75 0 4.25 0 4.25-35.5 8.05-35.5 29.75-7.75 29.75-35.45 34.25-35.45 34.25 0 30.15 0Z" opacity="1" transform="matrix(1,0,0,1,0,0)" fill="black" class="wordmark-text-0" id="SvgjsPath4784"></path></svg></g></svg></g></svg></g></svg></g><g transform="matrix(1,0,0,1,52.81284507042254,0)"><svg viewBox="0 0 170.88135211267607 294.5283310645356" height="294.5283310645356" width="170.88135211267607"><g><svg xmlns="http://www.w3.org/2000/svg" xmlns:xlink="http://www.w3.org/1999/xlink" version="1.1" x="0" y="0" viewBox="21.679106830508616 1 56.85827385947762 98" enable-background="new 0 0 100 100" xml:space="preserve" height="294.5283310645356" width="170.88135211267607" class="icon-icon-0" data-fill-palette-color="accent" id="SvgjsSvg4783"><g fill="black"><path fill-rule="evenodd" clip-rule="evenodd" d="M30.545 28.822C29.38 36.039 30.875 43.672 37.045 47.863 30.758 19.81 45.756 8.664 59.646 1 43.466 24.046 76.542 24.644 78.423 51.13 80.028 73.71 64.507 91.317 46.639 99 46.845 76.175 24.089 73.067 21.801 54.397 20.905 47.094 25.062 33.766 30.545 28.822" fill="black"></path></g></svg></g></svg></g><g></g></svg></g><defs><mask></mask></defs></svg><rect width="139.6396040086671" height="327.2" fill="black" stroke="none" visibility="hidden"></rect></g></mask></svg><rect width="139.6396040086671" height="327.2" fill="black" stroke="none" visibility="hidden"></rect></g></mask><linearGradient x1="0" x2="1" y1="0.578" y2="0.595" id="eb9015d3-2d95-4dfe-9bda-996c6344f3a4"><stop stop-color="#6ee2f5" offset="0"></stop><stop stop-color="#6454f0" offset="1"></stop></linearGradient><rect width="139.6396040086671" height="327.2" fill="url(#eb9015d3-2d95-4dfe-9bda-996c6344f3a4)" mask="url(#c7cbd502-b7bc-46ae-aaf8-6a1d2d319bee)" data-fill-palette-color="accent"></rect></svg><rect width="139.6396040086671" height="327.2" fill="none" stroke="none" visibility="hidden"></rect></g></svg></g></svg>